<svg width="272" height="158" viewBox="0 0 272 158" fill="none" xmlns="http://www.w3.org/2000/svg">
<path d="M136.202 157.713C211.169 157.713 271.941 139.804 271.941 117.712C271.941 95.62 211.169 77.7109 136.202 77.7109C61.2358 77.7109 0.463379 95.62 0.463379 117.712C0.463379 139.804 61.2358 157.713 136.202 157.713Z" fill="#222222"/>
<path d="M244.652 87.2059C244.652 103.127 201.231 116.036 147.668 116.036C94.1055 116.036 50.6846 103.127 50.6846 87.2059C50.6846 71.2845 94.1055 58.3743 147.668 58.3743C201.231 58.3743 244.652 71.283 244.652 87.2059Z" fill="#FECB50"/>
<path d="M147.669 109.221C188.567 109.221 221.72 99.3643 221.72 87.2059C221.72 75.0474 188.567 65.191 147.669 65.191C106.772 65.191 73.6187 75.0474 73.6187 87.2059C73.6187 99.3643 106.772 109.221 147.669 109.221Z" fill="#BF6718"/>
<path d="M221.72 87.2058C221.72 98.6771 190.435 107.978 151.845 107.978C113.255 107.978 81.9727 98.6771 81.9727 87.2058C81.9727 75.7345 113.257 66.4332 151.848 66.4332C190.439 66.4332 221.72 75.7361 221.72 87.2058Z" fill="#F6A33E"/>
<path d="M170.531 86.2331C162.479 83.7548 149.838 83.4853 141.469 83.3041C137.789 83.2251 135.107 82.7728 134.113 82.065C133.052 81.3029 133.974 80.3131 136.578 79.4194C138.876 78.631 143.157 78.1601 148.32 78.1291C154.016 78.0935 158.063 78.6078 158.959 78.8494C160.742 79.7493 164.613 80.0746 167.732 79.5774C170.927 79.0663 172.123 77.8736 170.401 76.9303C166.987 75.0468 158.175 74.483 153.869 74.3173V72.5577C153.869 71.4734 150.931 70.6045 147.301 70.6045C143.672 70.6045 140.73 71.4781 140.73 72.5577V74.4923C135.008 74.8811 130.059 75.6881 126.645 76.8621C120.716 78.899 118.968 81.402 121.973 83.5597C124.896 85.6554 131.83 87.0231 140.521 87.2074C147.275 87.353 156.523 87.5512 161.09 88.9546C163.507 89.6981 164.732 90.7095 164.542 91.803C164.351 92.8966 162.717 93.9715 160.065 94.7259C155.045 96.1679 146.919 96.6821 139.844 96.0099C136.692 95.711 131.215 94.9071 129.947 92.8904C129.277 91.8294 125.838 91.1324 122.277 91.3275C118.717 91.5227 116.361 92.5481 117.03 93.6075C118.877 96.5381 125.735 98.7717 135.846 99.732C137.458 99.8869 139.094 99.9953 140.74 100.076V101.866C140.74 102.951 143.678 103.821 147.311 103.821C150.943 103.821 153.879 102.946 153.879 101.866V99.9457C159.616 99.5601 164.965 98.7484 169.189 97.5356C174.283 96.075 177.296 94.1125 177.665 92.0075C178.041 89.8127 175.509 87.765 170.531 86.2331Z" fill="#D4831A"/>
<path d="M175.072 86.2332C167.021 83.7549 154.377 83.4854 146.01 83.3042C142.329 83.2252 139.646 82.7729 138.653 82.0557C137.593 81.2952 138.514 80.3054 141.119 79.4117C143.417 78.6233 147.696 78.1524 152.861 78.1215C158.555 78.0858 162.604 78.6001 163.499 78.8417C165.281 79.7416 169.152 80.0669 172.273 79.5697C175.468 79.0586 176.663 77.8659 174.944 76.9226C171.527 75.0391 162.714 74.4753 158.41 74.3096V72.55C158.41 71.4657 155.472 70.5968 151.84 70.5968C148.209 70.5968 145.271 71.4688 145.271 72.55V74.4846C139.549 74.8734 134.608 75.6804 131.185 76.8544C125.256 78.8913 123.509 81.3943 126.513 83.552C129.436 85.6477 136.371 87.0154 145.062 87.1997C151.814 87.3453 161.062 87.5436 165.621 88.9469C168.04 89.6904 169.265 90.7018 169.073 91.7954C168.881 92.8889 167.248 93.9638 164.597 94.7182C159.574 96.1602 151.452 96.6744 144.376 96.0022C141.224 95.7033 135.748 94.8994 134.478 92.8827C133.808 91.8201 130.369 91.1247 126.809 91.3198C123.249 91.515 120.895 92.5404 121.562 93.5998C123.408 96.5304 130.267 98.7639 140.379 99.7243C141.991 99.8792 143.627 99.9876 145.272 100.068V101.859C145.272 102.943 148.211 103.813 151.842 103.813C155.473 103.813 158.411 102.938 158.411 101.859V99.938C164.151 99.5523 169.497 98.7407 173.722 97.5279C178.816 96.0673 181.825 94.1048 182.195 91.9998C182.583 89.8127 180.053 87.7651 175.072 86.2332Z" fill="#FECB50"/>
<path d="M76.1129 92.8842L55.9513 96.5846C52.5351 93.6416 50.6777 90.4896 50.6777 87.2043C50.6777 86.958 50.6947 86.7195 50.7148 86.4794L75.8114 81.8636C74.3669 83.5768 73.6153 85.3611 73.6153 87.2043C73.6215 89.1684 74.4783 91.0704 76.1129 92.8842Z" fill="#FFF151"/>
<path d="M216.896 67.0203L196.756 70.7191C187.521 68.2873 176.22 66.5277 163.736 65.7099L188.853 61.0988C199.383 62.5702 208.863 64.5838 216.896 67.0203Z" fill="#FFF151"/>
<path d="M88.182 100.328L68.6405 103.917C65.8396 102.775 63.1291 101.422 60.5322 99.8699L80.148 96.2671C82.344 97.706 85.0473 99.066 88.182 100.328Z" fill="#BF6718"/>
<path d="M233.302 73.6667L213.762 77.2649C211.359 75.8476 208.449 74.5248 205.102 73.3089L224.718 69.7046C227.668 70.8237 230.536 72.1476 233.302 73.6667Z" fill="#BF6718"/>
<path d="M131.615 108.699L106.485 113.316C97.8242 112.109 89.8907 110.536 82.8696 108.655L103.469 104.873C111.702 106.691 121.238 108.017 131.615 108.699Z" fill="#F69F1D"/>
<path d="M244.664 87.1982C244.664 87.4429 244.646 87.6892 244.627 87.9292L219.36 92.576C220.907 90.8722 221.726 89.0615 221.726 87.2044C221.726 85.8924 221.315 84.6099 220.525 83.363L241.211 79.5651C243.456 81.9984 244.664 84.565 244.664 87.1982Z" fill="#F69F1D"/>
<path d="M147.668 116.036C94.1055 116.036 50.6846 103.127 50.6846 87.2059V109.926C50.6846 125.848 94.1055 138.756 147.668 138.756C201.231 138.756 244.652 125.848 244.652 109.926L244.306 89.5495C240.288 104.376 198.579 116.036 147.668 116.036Z" fill="#F6A64A"/>
<path d="M63.3965 124.188C67.572 126.356 72.6461 128.358 78.5026 130.128V107.41C72.6461 105.638 67.5658 103.642 63.3965 101.468V124.188Z" fill="#C05836"/>
<path d="M114.798 114.335C109.533 113.771 104.498 113.08 99.6914 112.26V134.978C104.489 135.793 109.524 136.485 114.798 137.055V114.335Z" fill="#FECB50"/>
<path d="M91.9584 110.799C89.3427 110.252 86.825 109.668 84.4053 109.049V131.768C86.8219 132.388 89.3396 132.971 91.9584 133.519V110.799Z" fill="#FFF151"/>
<path d="M185.29 136.507C192.365 135.619 199.007 134.493 205.108 133.153V110.432C199.007 111.769 192.365 112.899 185.29 113.785V136.507Z" fill="#FECB50"/>
<path d="M226.45 104.001C222.31 105.716 217.554 107.289 212.279 108.693V131.421C217.557 130.018 222.307 128.444 226.45 126.73V104.001Z" fill="#FFF151"/>
<path d="M221.721 65.1152C221.721 81.0381 178.3 93.9468 124.737 93.9468C71.1739 93.9468 27.7515 81.0381 27.7515 65.1152C27.7515 49.1923 71.1739 36.2836 124.737 36.2836C178.3 36.2836 221.721 49.1923 221.721 65.1152Z" fill="#FECB50"/>
<path d="M198.787 65.1151C198.787 77.2726 165.635 87.1284 124.736 87.1284C83.8377 87.1284 50.6855 77.2726 50.6855 65.1151C50.6855 52.9576 83.8393 43.1018 124.736 43.1018C165.633 43.1018 198.787 52.9576 198.787 65.1151Z" fill="#BF6718"/>
<path d="M128.914 85.8877C167.505 85.8877 198.789 76.5875 198.789 65.1151C198.789 53.6427 167.505 44.3425 128.914 44.3425C90.3228 44.3425 59.0386 53.6427 59.0386 65.1151C59.0386 76.5875 90.3228 85.8877 128.914 85.8877Z" fill="#F6A33E"/>
<path d="M147.6 64.1424C139.547 61.6642 126.905 61.3946 118.537 61.215C114.858 61.1344 112.176 60.6806 111.182 59.9665C110.121 59.206 111.041 58.2147 113.647 57.3225C115.946 56.5326 120.225 56.0617 125.391 56.0292C131.085 55.9951 135.134 56.5109 136.029 56.751C137.811 57.6509 141.682 57.9777 144.801 57.4774C147.996 56.9678 149.191 55.7829 147.47 54.8334C144.055 52.9499 135.243 52.383 130.938 52.2188V50.4577C130.938 49.3735 128 48.5045 124.369 48.5045C120.737 48.5045 117.799 49.3797 117.799 50.4577V52.3923C112.077 52.7842 107.128 53.5896 103.714 54.7637C97.7843 56.8005 96.0368 59.3036 99.0416 61.4613C101.964 63.5585 108.899 64.9231 117.59 65.109C124.342 65.2546 133.592 65.4528 138.149 66.8577C140.568 67.5996 141.794 68.6126 141.601 69.7046C141.408 70.7966 139.776 71.8731 137.126 72.6274C132.104 74.0679 123.98 74.5853 116.905 73.9115C113.753 73.6141 108.276 72.8102 107.008 70.7904C106.338 69.7309 102.899 69.0339 99.3385 69.2306C95.7785 69.4274 93.4216 70.4496 94.0913 71.5091C95.9378 74.4412 102.796 76.6732 112.907 77.632C114.519 77.7869 116.155 77.8984 117.801 77.9774V79.7633C117.801 80.8476 120.739 81.7165 124.37 81.7165C128.001 81.7165 130.94 80.8414 130.94 79.7633V77.8426C136.677 77.4554 142.026 76.6422 146.25 75.4325C151.353 73.9704 154.355 72.0063 154.726 69.9013C155.108 67.7204 152.578 65.6681 147.6 64.1424Z" fill="#D4831A"/>
<path d="M152.144 64.1424C144.102 61.6642 131.45 61.3946 123.082 61.2134C119.403 61.1344 116.72 60.6806 115.727 59.9743C114.664 59.2138 115.588 58.2225 118.192 57.3303C120.488 56.5403 124.769 56.0695 129.934 56.0369C135.629 56.0028 139.677 56.5186 140.571 56.7587C142.354 57.6571 146.225 57.9855 149.346 57.4852C152.541 56.9756 153.737 55.7813 152.015 54.8412C148.601 52.9561 139.787 52.3908 135.482 52.2266V50.4577C135.482 49.3735 132.543 48.5045 128.914 48.5045C125.284 48.5045 122.344 49.3797 122.344 50.4577V52.3923C116.622 52.7842 111.673 53.5896 108.257 54.7637C102.328 56.8005 100.582 59.3036 103.585 61.4613C106.51 63.5585 113.444 64.9231 122.143 65.109C128.895 65.2546 138.143 65.4528 142.702 66.8577C145.121 67.5996 146.346 68.6126 146.154 69.7046C145.962 70.7966 144.329 71.8731 141.679 72.6274C136.656 74.0679 128.533 74.5853 121.455 73.9115C118.305 73.6141 112.829 72.8087 111.557 70.7904C110.886 69.7309 107.448 69.0339 103.888 69.2306C100.328 69.4274 97.9731 70.4496 98.6411 71.5091C100.488 74.4412 107.346 76.6732 117.459 77.632C119.069 77.7869 120.707 77.8984 122.352 77.9774V79.7633C122.352 80.8476 125.29 81.7165 128.921 81.7165C132.553 81.7165 135.482 80.8476 135.482 79.7633V77.8426C141.222 77.4554 146.569 76.6422 150.792 75.4325C155.895 73.9704 158.897 72.0063 159.267 69.9013C159.652 67.7204 157.122 65.6681 152.144 64.1424Z" fill="#FECB50"/>
<path d="M53.1818 70.795L33.0201 74.497C29.6039 71.554 27.7466 68.4035 27.7466 65.1151C27.7466 64.8704 27.7636 64.6319 27.7822 64.3902L52.8802 59.776C51.4358 61.4891 50.6842 63.275 50.6842 65.1151C50.6842 67.0776 51.5471 68.9797 53.1818 70.795Z" fill="#FFF151"/>
<path d="M193.964 44.9296L173.824 48.63C164.588 46.1966 153.288 44.4386 140.805 43.6177L165.921 39.0081C176.45 40.478 185.93 42.4916 193.964 44.9296Z" fill="#FFF151"/>
<path d="M65.2508 78.2392L45.7093 81.825C42.9084 80.6841 40.1979 79.3322 37.6011 77.7807L57.2168 74.1764C59.4128 75.6138 62.1161 76.9753 65.2508 78.2392Z" fill="#BF6718"/>
<path d="M210.371 51.5729L190.831 55.1742C188.428 53.7585 185.519 52.4357 182.17 51.2182L201.786 47.6139C204.736 48.7327 207.604 50.0555 210.371 51.5729Z" fill="#BF6718"/>
<path d="M108.687 86.6095L83.5519 91.2253C74.8915 90.0187 66.958 88.4372 59.9385 86.563L80.5316 82.7821C88.7775 84.599 98.307 85.9264 108.687 86.6095Z" fill="#F69F1D"/>
<path d="M221.727 65.1121C221.727 65.3583 221.708 65.6046 221.688 65.8447L196.423 70.4915C197.969 68.7768 198.789 66.9754 198.789 65.1167C198.789 63.8063 198.376 62.5223 197.587 61.2785L218.273 57.4774C220.525 59.9061 221.727 62.468 221.727 65.1121Z" fill="#F69F1D"/>
<path d="M124.737 93.9467C71.1739 93.9467 27.7515 81.038 27.7515 65.1151V87.8331C27.7515 103.759 71.1739 116.666 124.737 116.666C178.3 116.666 221.721 103.759 221.721 87.8331L221.376 67.4586C217.356 82.2865 175.641 93.9467 124.737 93.9467Z" fill="#F6A64A"/>
<path d="M40.4648 102.097C44.6326 104.266 49.7144 106.267 55.571 108.039V85.3192C49.7144 83.5473 44.6326 81.5507 40.4648 79.3776V102.097Z" fill="#C05836"/>
<path d="M91.8703 92.2446C86.604 91.6828 81.5686 90.9905 76.7642 90.1675V112.887C81.5614 113.701 86.5968 114.393 91.8703 114.964V92.2446Z" fill="#FECB50"/>
<path d="M69.0272 88.7083C66.4116 88.161 63.8939 87.5776 61.4741 86.958V109.676C63.8908 110.296 66.4085 110.88 69.0272 111.428V88.7083Z" fill="#FFF151"/>
<path d="M162.358 114.416C169.434 113.53 176.074 112.402 182.177 111.061V88.3351C176.076 89.6718 169.434 90.801 162.358 91.687V114.416Z" fill="#FECB50"/>
<path d="M203.518 81.9102C199.377 83.6248 194.623 85.197 189.346 86.6034V109.329C194.626 107.927 199.375 106.354 203.518 104.641V81.9102Z" fill="#FFF151"/>
<path d="M228.581 31.9775C228.581 47.9004 185.158 60.8092 131.595 60.8092C78.0326 60.8092 34.6147 47.9004 34.6147 31.9775C34.6147 16.0546 78.0372 3.14587 131.6 3.14587C185.163 3.14587 228.581 16.0546 228.581 31.9775Z" fill="#FECB50"/>
<path d="M205.653 31.9775C205.653 44.135 172.497 53.9908 131.6 53.9908C90.7031 53.9908 57.5479 44.1381 57.5479 31.9775C57.5479 19.8169 90.7031 9.96265 131.6 9.96265C172.497 9.96265 205.653 19.82 205.653 31.9775Z" fill="#BF6718"/>
<path d="M205.652 31.9776C205.652 43.4504 174.366 52.7501 135.775 52.7501C97.1839 52.7501 65.8999 43.4566 65.8999 31.9776C65.8999 20.4985 97.1855 11.205 135.775 11.205C174.365 11.205 205.652 20.5062 205.652 31.9776Z" fill="#F6A33E"/>
<path d="M60.044 37.6574L39.8854 41.35C36.4677 38.4071 34.6104 35.2566 34.6104 31.9697C34.6104 31.7235 34.6289 31.4834 34.6475 31.2448L59.7455 26.6353C58.2996 28.3484 57.548 30.1343 57.548 31.9759C57.548 33.94 58.4109 35.8436 60.044 37.6574Z" fill="#FFF151"/>
<path d="M200.827 11.7935L180.686 15.4908C171.452 13.059 160.151 11.3087 147.668 10.4816L172.783 5.87976C183.313 7.34039 192.793 9.35244 200.827 11.7935Z" fill="#FFF151"/>
<path d="M72.114 45.1L52.5725 48.6889C49.772 47.5471 47.062 46.1941 44.4658 44.6415L64.08 41.0403C66.2776 42.4777 68.9824 43.8392 72.114 45.1Z" fill="#BF6718"/>
<path d="M217.236 18.4385L197.693 22.0366C195.292 20.6193 192.382 19.2981 189.032 18.0807L208.648 14.4763C211.599 15.5966 214.468 16.9205 217.236 18.4385Z" fill="#BF6718"/>
<path d="M115.55 53.4704L90.4151 58.0862C81.7547 56.8811 73.8228 55.3074 66.8032 53.4255L87.3933 49.6445C95.633 51.463 105.17 52.7904 115.55 53.4704Z" fill="#F69F1D"/>
<path d="M228.59 31.9759C228.59 32.2222 228.573 32.467 228.553 32.707L203.288 37.3538C204.834 35.6407 205.652 33.8378 205.652 31.9806C205.652 30.6687 205.239 29.3861 204.452 28.1408L225.136 24.3413C227.388 26.77 228.59 29.3304 228.59 31.9759Z" fill="#F69F1D"/>
<path d="M131.6 60.8092C78.0372 60.8092 34.6147 47.9005 34.6147 31.9775V54.6971C34.6147 70.62 78.0372 83.5272 131.6 83.5272C185.163 83.5272 228.581 70.6247 228.581 54.6971L228.236 34.3226C224.221 49.1473 182.503 60.8092 131.6 60.8092Z" fill="#F6A64A"/>
<path d="M47.3315 68.9612C51.5071 71.1297 56.5827 73.1293 62.4392 74.9013V52.1817C56.5827 50.4097 51.5024 48.4132 47.3315 46.2416V68.9612Z" fill="#C05836"/>
<path d="M98.7308 59.1084C93.4644 58.5426 88.4285 57.8497 83.623 57.0298V79.7494C88.4223 80.5641 93.4582 81.2565 98.7308 81.8265V59.1084Z" fill="#FECB50"/>
<path d="M75.892 55.5722C73.2743 55.0239 70.7561 54.4404 68.3374 53.8219V76.5399C70.7551 77.1595 73.2733 77.7434 75.892 78.2918V55.5722Z" fill="#FFF151"/>
<path d="M213.34 24.3367C192.423 26.2093 190.916 27.7257 189.04 48.6749C187.173 27.7257 185.658 26.2155 164.741 24.3367C185.658 22.4671 187.165 20.9507 189.04 0C190.909 20.9507 192.423 22.4671 213.34 24.3367Z" fill="white"/>
<path d="M169.22 81.2781C176.298 80.3905 182.937 79.2645 189.04 77.9246V55.1989C182.939 56.5356 176.295 57.6647 169.22 58.5507V81.2781Z" fill="#FECB50"/>
<path d="M210.382 48.7739C206.242 50.4886 201.488 52.0607 196.209 53.4641V76.2007C201.489 74.7974 206.238 73.2237 210.382 71.5106V48.7739Z" fill="#FFF151"/>
<path d="M97.9157 89.224C76.9994 91.0967 75.4854 92.6193 73.6218 113.561C71.7537 92.6115 70.2381 91.1013 49.3218 89.224C70.2335 87.3529 71.749 85.8365 73.6218 64.8936C75.4854 85.8365 76.9994 87.3529 97.9157 89.224Z" fill="white"/>
<path d="M128.131 31.7328L127.601 32.4747L127.865 33.243L128.131 33.4103L128.666 32.5708L128.131 31.7328Z" fill="#D4831A"/>
<path d="M144.845 32.0998V32.7984L145.315 33.4102L145.713 32.5707L145.261 31.8752" fill="#D4831A"/>
<path d="M127.554 43.9492C126.499 44.4829 125.488 45.1009 124.532 45.797C122.844 47.0362 121.613 48.4209 120.941 49.8521C120.686 50.3989 120.352 51.037 120.456 51.6039C120.241 50.4283 120.61 49.2434 121.416 48.1235C122.553 46.5529 124.509 45.1217 126.843 43.8578C127.081 43.8903 127.318 43.9197 127.554 43.9492Z" fill="#D4831A"/>
<path d="M130.12 44.2125C129.876 44.3271 129.635 44.4438 129.399 44.5625C128.281 45.1181 127.212 45.7668 126.203 46.5018C124.514 47.7409 123.283 49.1257 122.613 50.5569C122.357 51.1036 122.023 51.7418 122.126 52.3087C121.911 51.1331 122.281 49.9481 123.087 48.8283C124.242 47.2344 126.241 45.7831 128.62 44.5052C128.851 44.3813 129.085 44.26 129.324 44.1412C129.585 44.1676 129.852 44.1908 130.12 44.2125Z" fill="#D4831A"/>
<path d="M133.007 44.3595C132.644 44.5237 132.288 44.6941 131.943 44.8676C130.823 45.4228 129.752 46.0715 128.74 46.8068C127.052 48.046 125.819 49.4307 125.149 50.8619C124.894 51.4087 124.56 52.0484 124.664 52.6137C124.449 51.4381 124.818 50.2532 125.624 49.1333C126.778 47.5395 128.779 46.0881 131.157 44.8103C131.467 44.6476 131.776 44.4881 132.085 44.3317C132.398 44.3441 132.705 44.3533 133.007 44.3595Z" fill="#D4831A"/>
<path d="M161.426 47.033C161.169 46.6164 160.56 46.2013 160.059 45.8404C158.746 44.8986 157.065 44.0622 155.133 43.3729C154.013 42.9776 152.872 42.6425 151.715 42.3692C151.049 42.2143 150.362 42.0594 149.665 41.9371C149.321 41.873 148.975 41.8132 148.625 41.7574C148.653 41.661 148.669 41.5617 148.673 41.4615C149.889 41.6954 151.091 41.9386 152.244 42.236C154.686 42.8649 156.96 43.6626 158.712 44.6632C159.944 45.3664 160.894 46.1687 161.426 47.033Z" fill="#D4831A"/>
<path d="M160.594 45.9054C160.337 45.4887 159.728 45.0736 159.227 44.7127C157.914 43.771 156.233 42.9346 154.301 42.2453C153.181 41.8492 152.04 41.5142 150.883 41.2416C150.217 41.0867 149.53 40.9318 148.833 40.8094L148.511 40.7506C148.457 40.6453 148.396 40.5399 148.332 40.4408C149.382 40.6453 150.416 40.8621 151.415 41.1208C153.857 41.7403 156.131 42.5473 157.883 43.5464C159.112 44.2372 160.062 45.0395 160.594 45.9054Z" fill="#D4831A"/>
<path d="M153.277 23.5037C155.62 22.0306 164.172 15.2278 154.701 16.659C147.841 17.6952 142.029 20.5127 137.034 22.8314C132.419 22.4767 132.132 22.1979 124.416 22.5216C124.416 22.5139 122.972 22.6239 122.966 22.6161C121.773 21.0269 121.787 19.193 120.154 17.6859C119.381 16.9688 118.453 16.2144 116.84 15.8783C114.494 15.3889 111.755 15.9945 109.715 16.7116C100.473 19.9644 96.6705 25.6024 97.0339 30.8936C97.2365 33.9109 98.7351 37.0304 102.925 39.3848C106.914 41.6276 112.865 42.9364 118.615 44.174C121.554 44.806 124.682 45.441 127.851 45.8654L127.958 45.8081C129.207 45.1375 130.596 44.5365 132.009 43.9401C131.802 43.6412 132.473 43.3608 133.132 43.4956C133.288 43.5185 133.434 43.5845 133.554 43.6861C133.827 43.9603 133.33 44.236 132.738 44.2096C132.504 44.2933 132.229 44.3645 132.02 44.4435C131.618 44.5984 131.224 44.7533 130.837 44.9082C130.107 45.2108 129.41 45.5293 128.745 45.8639L128.564 45.9553C129.152 46.0286 129.739 46.0926 130.327 46.1473C131.377 45.6223 132.507 45.1359 133.653 44.6526C133.525 44.3692 134.164 44.1167 134.798 44.2453C134.954 44.2687 135.1 44.3352 135.22 44.4373C135.509 44.727 134.931 45.0213 134.292 44.9516C134.086 45.0197 133.862 45.0801 133.686 45.1467C133.284 45.2985 132.889 45.4534 132.503 45.6114C132.033 45.8066 131.575 46.0085 131.131 46.2171C131.791 46.2697 132.45 46.3095 133.109 46.3363C134.11 45.8469 135.177 45.3899 136.256 44.9423C136.125 44.6573 136.765 44.4048 137.399 44.5334C137.555 44.5571 137.702 44.6236 137.823 44.7254C138.109 45.0135 137.54 45.3047 136.907 45.2412C136.683 45.3171 136.429 45.3837 136.234 45.4581C135.831 45.613 135.438 45.7679 135.051 45.9228C134.7 46.0684 134.359 46.2171 134.023 46.3704C136.355 46.4355 138.688 46.2532 140.982 45.8267C142.165 45.5944 143.302 45.2846 144.572 45.1932C145.713 45.1127 146.949 45.2102 147.974 44.9748C148.976 44.7471 149.476 44.2809 149.626 43.7682L149.55 43.7558C149.435 43.7372 149.307 43.7233 149.176 43.7093C149.123 43.7604 149.058 43.7963 148.987 43.8131C148.654 43.8983 148.235 43.7078 148.172 43.4429C148.136 43.288 148.238 43.161 148.424 43.113C148.565 43.0787 148.713 43.0858 148.85 43.1336C148.987 43.1814 149.108 43.2679 149.197 43.3825L149.674 43.4724C149.682 43.2261 149.629 42.9817 149.519 42.7614C149.256 42.7149 148.992 42.67 148.726 42.6267C148.591 42.6065 148.436 42.591 148.283 42.5724C148.27 42.582 148.255 42.5898 148.24 42.5957C147.965 42.7149 147.454 42.5771 147.249 42.3277C147.134 42.1883 147.16 42.0473 147.315 41.9807C147.587 41.8615 148.088 41.9947 148.297 42.2394C148.645 42.306 148.992 42.3711 149.336 42.4392C148.893 41.7329 148.231 41.0452 148.325 40.3126C148.444 39.3724 149.789 38.57 150.7 37.7228C152.732 35.8331 152.579 33.4958 150.303 31.6634C149.856 31.3025 149.326 30.9524 149.126 30.5497C148.45 29.1805 151.746 28.0203 151.945 26.6201C152.035 26.0005 151.498 25.3701 151.791 24.7614C151.992 24.2828 152.661 23.8909 153.277 23.5037ZM120.57 22.9832C117.154 23.6028 113.765 24.2983 110.785 25.2803C107.805 26.2623 105.254 27.5649 104.006 29.1324C101.983 27.4286 101.386 25.3794 102.357 23.4913C103.645 20.9929 108.48 16.7535 114.757 16.5211C115.162 16.4955 115.568 16.5131 115.969 16.5738C116.053 16.5893 116.124 16.6079 116.207 16.628C116.48 16.707 116.742 16.8166 116.99 16.9548C120.078 18.5936 121.433 20.8705 120.57 22.9832ZM131.395 35.9028C130.636 36.3008 128.947 36.9142 127.702 36.6943C126.53 36.4883 125.468 36.2296 124.797 35.7355C124.125 35.2414 124.008 34.676 123.38 34.216L122.979 33.9062C125.036 33.6832 127.13 33.5035 129.198 33.4322C130.045 33.4028 130.775 33.5562 131.592 33.629C131.694 33.6344 131.795 33.6495 131.893 33.6739H131.914C132.09 34.3523 132.461 35.3452 131.397 35.9028H131.395ZM146.301 41.7701C145.738 42.0717 145.196 42.4117 144.68 42.7877C144.513 42.923 144.326 43.0321 144.126 43.1115C143.855 43.2093 143.563 43.2344 143.279 43.1843C143.078 43.1379 142.893 43.0371 142.745 42.8931C141.949 42.2363 140.557 41.7314 138.964 41.5223C138.928 41.3364 139.338 41.2001 139.706 41.1134C140.923 40.8232 142.168 40.6674 143.418 40.6487C144.773 40.6347 145.963 40.8655 147.244 41.0251C147.153 41.2961 146.843 41.4742 146.302 41.7701H146.301ZM149.485 35.3978C149.485 35.9973 148.439 36.7051 147.035 36.7671C146.438 36.7934 145.809 36.7671 145.21 36.7671L146.833 40.3048L144.647 37.0614C144.544 36.544 144.527 35.9864 144.647 35.6519L144.664 35.0834C144.664 34.9548 144.702 34.8291 144.774 34.7225C145.084 34.2501 146.11 33.948 147.117 33.7622C147.713 33.6491 148.314 33.5809 148.925 33.5159C149.31 34.066 149.507 34.7262 149.486 35.3978H149.485ZM150.785 23.7422C150.444 23.9374 150.085 24.1372 149.935 24.3757C149.785 24.6142 149.851 24.8621 149.865 25.1068C149.905 25.8317 149.471 26.5597 148.628 27.1762C147.116 26.2081 145.586 25.223 143.614 24.4408C142.55 24.0179 142.377 24.0179 141.324 23.7406C140.241 23.4541 138.608 23.2047 138.523 23.1087C138.396 22.9631 139.836 22.4349 140.524 22.0368C143.56 20.2788 149.251 18.5843 153.38 17.4644C154.241 17.1891 155.13 17.0114 156.03 16.9347C156.995 16.8774 158.099 17.0509 158.504 17.4489C156.718 19.7196 154.098 21.8556 150.787 23.7422H150.785Z" fill="#BF6718"/>
<path d="M134.896 44.8088C134.896 44.8088 137.11 44.7159 139.448 44.4139C142.342 44.0406 145.526 43.469 146.157 43.8082C147.085 44.3039 142.501 44.7686 140.71 44.9281C140.271 44.9668 139.721 45.0071 139.274 45.0071C138.573 45.0071 137.637 44.9962 136.997 44.9668C136.178 44.9296 135.715 44.846 134.896 44.8088Z" fill="#D4831A"/>
<path d="M129.226 31.4601L128.694 32.2036L128.96 32.9703L129.226 33.1391L129.761 32.2996L129.226 31.4601Z" fill="#FECB50"/>
<path d="M145.94 31.8273V32.5274L146.411 33.1392L146.808 32.2997L146.356 31.6027" fill="#FECB50"/>
<path d="M128.649 43.6734C127.594 44.2103 126.583 44.8319 125.628 45.5321C123.939 46.7713 122.706 48.1576 122.037 49.5872C121.781 50.1355 121.447 50.7737 121.551 51.3406C121.336 50.1634 121.706 48.9785 122.511 47.8586C123.648 46.2896 125.604 44.8568 127.938 43.5929C128.175 43.6177 128.413 43.6487 128.649 43.6734Z" fill="#FECB50"/>
<path d="M131.215 43.9398C130.971 44.0544 130.731 44.1722 130.494 44.2899C129.372 44.8453 128.299 45.4946 127.285 46.2307C125.596 47.4698 124.364 48.8545 123.694 50.2842C123.439 50.8325 123.105 51.4707 123.209 52.0376C122.994 50.8604 123.363 49.6755 124.169 48.5556C125.323 46.9633 127.324 45.512 129.702 44.2341C129.931 44.1102 130.166 43.9894 130.405 43.8701C130.688 43.8949 130.947 43.9197 131.215 43.9398Z" fill="#FECB50"/>
<path d="M134.107 44.0884C133.742 44.2526 133.387 44.422 133.043 44.5965C131.922 45.1517 130.85 45.8004 129.838 46.5357C128.15 47.7749 126.919 49.1596 126.249 50.5908C125.992 51.1376 125.66 51.7757 125.763 52.3426C125.548 51.167 125.918 49.9821 126.724 48.8622C127.877 47.2684 129.877 45.817 132.256 44.5392C132.565 44.375 132.877 44.2154 133.193 44.0605C133.498 44.0729 133.803 44.0822 134.107 44.0884Z" fill="#FECB50"/>
<path d="M162.521 46.7619C162.264 46.3452 161.653 45.9286 161.152 45.5692C159.841 44.6275 158.16 43.7895 156.226 43.1018C155.107 42.7058 153.966 42.3707 152.81 42.0981C152.142 41.9432 151.457 41.7883 150.76 41.6644C150.416 41.6009 150.068 41.542 149.719 41.4847C149.748 41.3892 149.764 41.2902 149.767 41.1904C150.984 41.4243 152.185 41.6675 153.339 41.9649C155.781 42.5938 158.054 43.393 159.807 44.3921C161.038 45.0937 161.989 45.8961 162.521 46.7619Z" fill="#FECB50"/>
<path d="M161.689 45.6343C161.432 45.2176 160.821 44.801 160.32 44.4401C159.009 43.4983 157.328 42.6619 155.395 41.9742C154.275 41.5781 153.134 41.2431 151.978 40.9705C151.31 40.8156 150.625 40.6607 149.928 40.5368L149.606 40.4795V40.4702C149.553 40.3649 149.493 40.2611 149.428 40.1604C150.477 40.3649 151.511 40.5817 152.512 40.8388C154.954 41.4677 157.227 42.2654 158.979 43.266C160.206 43.9661 161.154 44.7684 161.689 45.6343Z" fill="#FECB50"/>
<path d="M154.372 22.2326C156.715 20.7596 165.267 13.9567 155.796 15.3864C148.934 16.4226 143.115 19.2416 138.129 21.5588C133.514 21.2041 133.225 20.9269 125.509 21.249C125.509 21.2397 124.065 21.3513 124.059 21.342C122.868 19.7528 122.88 17.9204 121.249 16.4133C120.476 15.6961 119.548 14.9403 117.935 14.6057C115.589 14.1163 112.848 14.7203 110.81 15.439C101.568 18.6918 97.7637 24.3298 98.1194 29.6194C98.322 32.6383 99.8205 35.7578 104.012 38.1106C108.001 40.355 113.952 41.6623 119.701 42.8999C122.639 43.5318 125.768 44.1669 128.938 44.5913L129.045 44.534C130.293 43.8633 131.683 43.2639 133.096 42.666C132.889 42.3686 133.56 42.0882 134.218 42.2214C134.374 42.2449 134.521 42.3114 134.641 42.4135C134.914 42.6861 134.417 42.9618 133.823 42.9355C133.59 43.0207 133.315 43.0904 133.106 43.1694C132.702 43.3243 132.309 43.4792 131.923 43.6341C131.193 43.9438 130.492 44.2536 129.83 44.5882L129.649 44.6811C130.235 44.7524 130.822 44.8164 131.411 44.8732C132.462 44.3481 133.591 43.8618 134.739 43.3769C134.61 43.095 135.249 42.8426 135.882 42.9711C136.038 42.9939 136.185 43.0605 136.305 43.1632C136.593 43.4528 136.015 43.7456 135.378 43.6759C135.172 43.744 134.948 43.8044 134.771 43.871C134.369 44.0259 133.975 44.1808 133.588 44.3357C133.118 44.5309 132.661 44.7322 132.217 44.9398C132.876 44.9945 133.536 45.0348 134.194 45.0606C135.195 44.5712 136.261 44.1142 137.342 43.6573C137.21 43.3738 137.849 43.1214 138.484 43.2499C138.64 43.2727 138.787 43.3393 138.907 43.442C139.194 43.7301 138.625 44.0197 137.993 43.9562C137.768 44.0337 137.515 44.1003 137.318 44.1746C136.916 44.3295 136.522 44.4844 136.137 44.6393C135.786 44.7849 135.444 44.9341 135.108 45.0869C137.441 45.1522 139.774 44.9695 142.068 44.5417C143.249 44.3109 144.387 43.9996 145.657 43.9098C146.798 43.8292 148.032 43.9268 149.059 43.6914C150.062 43.4637 150.561 42.9974 150.709 42.4832L150.634 42.4708C150.521 42.4522 150.392 42.4398 150.261 42.4243C150.209 42.4757 150.144 42.5116 150.072 42.5281C149.74 42.6149 149.319 42.4244 149.257 42.1579C149.222 42.0108 149.324 41.8776 149.509 41.8296C149.65 41.795 149.798 41.802 149.935 41.8495C150.073 41.897 150.193 41.9831 150.283 42.0975L150.759 42.1889C150.769 41.9426 150.715 41.6979 150.604 41.478C150.341 41.4299 150.075 41.385 149.809 41.3432C149.676 41.3215 149.52 41.306 149.367 41.289C149.354 41.2975 149.34 41.3047 149.325 41.3107C149.05 41.4315 148.538 41.2936 148.334 41.0427C148.218 40.9033 148.246 40.7639 148.399 40.6958C148.673 40.578 149.172 40.7112 149.383 40.956L150.422 41.1558C149.978 40.4495 149.316 39.7618 149.409 39.0291C149.53 38.0874 150.875 37.2866 151.786 36.4378C153.816 34.5481 153.665 32.2108 151.388 30.3784C150.941 30.019 150.409 29.669 150.212 29.2647C149.536 27.8955 152.83 26.7353 153.031 25.3366C153.12 24.7171 152.584 24.0851 152.867 23.4779C153.086 23.0117 153.756 22.6198 154.372 22.2326ZM121.665 21.7122C118.249 22.3317 114.86 23.0257 111.88 24.0077C108.9 24.9897 106.348 26.2939 105.097 27.8598C103.074 26.156 102.477 24.1068 103.449 22.2202C104.737 19.7218 109.571 15.4824 115.848 15.2501C116.253 15.2244 116.66 15.2421 117.061 15.3027C117.141 15.3163 117.221 15.3344 117.299 15.3569C117.571 15.4359 117.834 15.5456 118.082 15.6838C121.171 17.3225 122.528 19.5979 121.665 21.7122ZM132.49 34.6317C131.731 35.0282 130.041 35.6432 128.797 35.4232C127.625 35.2172 126.563 34.9585 125.89 34.4629C125.242 33.9982 125.101 33.405 124.473 32.945L124.073 32.6352C126.131 32.4121 128.225 32.2324 130.293 32.1596C131.139 32.1318 131.869 32.2836 132.687 32.3579C132.791 32.363 132.894 32.3781 132.996 32.4028H133.014C133.185 33.0797 133.56 34.0741 132.492 34.6317H132.49ZM147.395 40.499C146.832 40.8001 146.291 41.1396 145.775 41.5151C145.608 41.6514 145.421 41.7612 145.221 41.8404C144.949 41.9364 144.657 41.9615 144.372 41.9132C144.172 41.8658 143.988 41.7652 143.84 41.622C143.042 40.9653 141.65 40.4603 140.059 40.2512C140.022 40.0638 140.433 39.929 140.801 39.8407C142.018 39.5521 143.262 39.3963 144.513 39.3761C145.866 39.3637 147.058 39.5945 148.337 39.754C148.235 40.0266 147.94 40.2032 147.397 40.499H147.395ZM150.578 34.1268C150.578 34.7247 149.533 35.4325 148.128 35.496C147.533 35.5224 146.904 35.496 146.304 35.496L147.926 39.0322L145.742 35.7888C145.639 35.2714 145.622 34.7138 145.742 34.3792L145.759 33.8092C145.759 33.6802 145.797 33.554 145.869 33.4468C146.178 32.9821 147.205 32.6723 148.212 32.4865C148.807 32.3749 149.409 32.3068 150.02 32.2402C150.405 32.7919 150.602 33.4538 150.58 34.1268H150.578ZM151.88 22.4711C151.537 22.6663 151.18 22.8661 151.028 23.1046C150.877 23.3432 150.946 23.5895 150.958 23.8342C151 24.5591 150.566 25.2886 149.721 25.9051C148.209 24.937 146.679 23.9504 144.708 23.1681C143.644 22.7468 143.47 22.7468 142.417 22.4696C141.327 22.1815 139.702 21.9337 139.615 21.8361C139.488 21.6905 140.929 21.1638 141.616 20.7658C144.653 19.0062 150.343 17.3132 154.474 16.1934C155.334 15.918 156.223 15.7403 157.123 15.6636C158.088 15.6063 159.19 15.7782 159.597 16.1779C157.813 18.447 155.194 20.583 151.882 22.4711H151.88Z" fill="#FECB50"/>
<path d="M135.991 44.5377C135.991 44.5377 138.204 44.4432 140.544 44.1411C143.436 43.7678 146.621 43.1978 147.252 43.537C148.18 44.0327 143.595 44.4958 141.806 44.6569C141.366 44.6956 140.816 44.7344 140.369 44.7344C139.668 44.7344 138.731 44.7251 138.092 44.6956C137.273 44.6585 136.81 44.5748 135.991 44.5377Z" fill="#FECB50"/>
</svg>
